#!OML:ASF F:\VICON\USERDATA\INSTALL\rory3\rory3.ASF
:FULLY-SPECIFIED
:DEGREES
188
root -0.165987 17.973 11.1819 -3.68949 1.34145 -1.27695
lowerback 9.74257 -1.72816 -1.54944
upperback -0.925209 -2.33936 2.35869
thorax -6.28151 -1.05404 3.70151
lowerneck -18.4567 -2.91268 -1.42718
upperneck 21.6002 -3.92962 1.05389
head 9.97234 -1.81333 0.060275
rclavicle 2.19906e-015 -1.98785e-015
rhumerus -42.1596 -37.8398 -62.867
rradius 16.9147
rwrist 16.8906
rhand -17.2464 25.2899
rfingers 7.12502
rthumb 8.99757 -4.49819
lclavicle 2.19906e-015 -1.98785e-015
lhumerus -26.5307 2.29419 82.3311
lradius 30.9746
lwrist 7.40627
lhand -29.3402 20.3315
lfingers 7.12502
lthumb -2.6803 50.2944
rfemur -21.5934 5.50635 24.4617
rtibia 27.5697
rfoot -3.51695 -3.21791
rtoes 10.3276
lfemur 9.61177 -1.74771 -20.987
ltibia 42.033
lfoot 9.66845 -15.8988
ltoes -19.3855
189
root -0.185219 17.9996 11.3697 -3.85513 1.30485 -1.88137
lowerback 9.88676 -1.69464 -0.992733
upperback -0.882438 -2.2169 2.53836
thorax -6.34079 -1.00893 3.56385
lowerneck -18.4934 -2.94282 -1.3696
upperneck 21.6413 -3.94843 0.89286
head 9.98902 -1.83589 -0.00913147
rclavicle -2.60905e-015 9.14409e-015
rhumerus -41.7794 -37.5684 -63.2599
rradius 16.9593
rwrist 16.4916
rhand -17.5903 24.599
rfingers 7.12502
rthumb 8.66572 -5.2031
lclavicle -2.60905e-015 9.14409e-015
lhumerus -26.978 2.42627 82.5219
lradius 31.3047
lwrist 7.49035
lhand -28.314 24.3587
lfingers 7.12502
lthumb -1.68913 54.3317
rfemur -20.8685 5.80197 25.343
rtibia 27.8602
rfoot -3.55277 -3.38922
rtoes 10.1794
lfemur 8.13137 -1.56697 -19.9987
ltibia 44.5202
lfoot 13.5485 -17.0244
ltoes -11.8278
190
root -0.204201 18.0251 11.5559 -4.04703 1.42959 -2.24886
lowerback 10.0924 -1.76443 -0.710079
upperback -0.861732 -2.26746 2.65173
thorax -6.43866 -1.03982 3.54012
lowerneck -18.4146 -2.8538 -1.32974
upperneck 21.5778 -3.82545 0.853907
head 9.94843 -1.78139 -0.0104205
rclavicle 1.61264e-014 -1.11319e-014
rhumerus -41.2195 -37.0389 -63.8495
rradius 16.8543
rwrist 15.898
rhand -17.3438 24.7066
rfingers 7.12502
rthumb 8.90362 -5.08558
lclavicle 1.61264e-014 -1.11319e-014
lhumerus -27.4599 2.64015 82.5905
lradius 31.5171
lwrist 7.66263
lhand -28.2705 24.6052
lfingers 7.12502
lthumb -1.64715 54.5785
rfemur -20.0329 6.09398 25.9283
rtibia 27.9613
rfoot -3.79578 -3.26803
rtoes 9.05502
lfemur 6.66152 -1.51572 -19.3186
ltibia 46.9813
lfoot 16.3129 -17.572
ltoes -9.459
191
root -0.211609 18.0495 11.7565 -4.32483 1.53917 -2.49866
lowerback 10.1481 -1.80151 -0.36509
upperback -0.698133 -2.2754 2.66882
thorax -6.30901 -1.0585 3.36129
lowerneck -18.5062 -2.85083 -1.39158
upperneck 21.4623 -3.84652 1.04408
head 9.93023 -1.77343 0.0629507
rclavicle 1.31695e-014 -9.93923e-015
rhumerus -40.9068 -37.499 -63.766
rradius 16.4989
rwrist 16.0938
rhand -16.4115 25.8394
rfingers 7.12502
rthumb 9.8032 -3.91239
lclavicle 1.31695e-014 -9.93923e-015
lhumerus -27.6663 2.68154 82.6928
lradius 31.552
lwrist 8.07766
lhand -28.4384 24.1708
lfingers 7.12502
lthumb -1.80931 54.1429
rfemur -18.9232 6.02351 26.3835
rtibia 27.8887
rfoot -4.13779 -3.24581
rtoes 8.24242
lfemur 5.46447 -1.50232 -18.9246
ltibia 49.4318
lfoot 20.3066 -17.6865
ltoes -3.72183
192
root -0.218133 18.0679 11.947 -4.40048 1.56161 -2.75419
lowerback 10.0558 -1.78125 0.0101031
upperback -0.608024 -2.20273 2.71257
thorax -6.17804 -1.0369 3.17748
lowerneck -18.6133 -2.90603 -1.62068
upperneck 21.5499 -3.91107 1.26438
head 9.9925 -1.79435 0.166681
rclavicle 1.75179e-014 -3.97569e-015
rhumerus -40.2189 -37.3893 -64.3323
rradius 16.4461
rwrist 15.9379
rhand -15.9609 25.0553
rfingers 7.12502
rthumb 10.2379 -4.67559
lclavicle 1.75179e-014 -3.97569e-015
lhumerus -27.8366 2.57203 82.9188
lradius 31.4506
lwrist 8.41562
lhand -28.3337 24.0895
lfingers 7.12502
lthumb -1.70816 54.0624
rfemur -18.1156 6.04644 26.7973
rtibia 27.9059
rfoot -4.52067 -3.53671
rtoes 8.89426
lfemur 4.00593 -1.40773 -18.5076
ltibia 51.8768
lfoot 23.3822 -17.7288
ltoes -0.746499
193
root -0.234206 18.0789 12.1181 -4.39587 1.50591 -3.34754
lowerback 10.0491 -1.71624 0.578798
upperback -0.582555 -2.03848 2.86236
thorax -6.17079 -0.972226 2.98897
lowerneck -18.5441 -3.02057 -1.64129
upperneck 21.5145 -4.06137 1.24919
head 9.96942 -1.86793 0.144889
rclavicle -1.86982e-014 2.10712e-014
rhumerus -38.6146 -34.7842 -67.1174
rradius 17.3455
rwrist 14.0604
rhand -18.3014 21.105
rfingers 7.12502
rthumb 7.97945 -8.72443
lclavicle -1.86982e-014 2.10712e-014
lhumerus -27.9742 2.34765 83.1758
lradius 31.256
lwrist 8.49346
lhand -28.1662 24.1279
lfingers 7.12502
lthumb -1.54639 54.1021
rfemur -17.5157 6.36886 27.6032
rtibia 27.9087
rfoot -4.69498 -3.79356
rtoes 9.33888
lfemur 2.29956 -1.15876 -17.5811
ltibia 54.3211
lfoot 25.4202 -18.2847
ltoes 0.594378
194
root -0.250143 18.0901 12.2885 -4.37215 1.60656 -3.53247
lowerback 10.1384 -1.70539 0.689294
upperback -0.586109 -2.00413 2.92818
thorax -6.22831 -0.957124 2.99485
lowerneck -18.3312 -3.0548 -1.68357
upperneck 21.1863 -4.10089 1.28582
head 9.81554 -1.88904 0.164754
rclavicle -2.13072e-015 7.15625e-015
rhumerus -39.379 -37.7673 -64.4868
rradius 16.4929
rwrist 15.2737
rhand -13.1154 24.5663
rfingers 7.12502
rthumb 12.9819 -5.0098
lclavicle -2.13072e-015 7.15625e-015
lhumerus -28.1895 2.20891 83.4108
lradius 31.2188
lwrist 8.5901
lhand -28.1701 25.0886
lfingers 7.12502
lthumb -1.55022 55.0628
rfemur -16.917 6.43263 27.9389
rtibia 27.8583
rfoot -4.89658 -3.90197
rtoes 9.62973
lfemur 0.586959 -0.898216 -17.1192
ltibia 56.7119
lfoot 25.9677 -18.8297
ltoes -0.786971
195
root -0.252233 18.1082 12.4723 -4.48437 1.7255 -3.73019
lowerback 10.1466 -1.71768 0.997848
upperback -0.539035 -1.98398 2.92457
thorax -6.19488 -0.957678 2.81282
lowerneck -18.1594 -3.02727 -1.58679
upperneck 20.9878 -4.09238 1.30239
head 9.71149 -1.87792 0.159828
rclavicle 1.58469e-014 -1.78906e-014
rhumerus -38.1302 -36.1516 -66.3546
rradius 16.6713
rwrist 16.0254
rhand -16.5383 22.3503
rfingers 7.12502
rthumb 9.68087 -7.40723
lclavicle 1.58469e-014 -1.78906e-014
lhumerus -28.297 2.15451 83.5129
lradius 30.8603
lwrist 8.69014
lhand -27.9254 25.9051
lfingers 7.12502
lthumb -1.31385 55.8808
rfemur -16.0228 6.0891 28.2489
rtibia 27.7447
rfoot -5.45515 -3.8266
rtoes 10.0378
lfemur -0.89882 -0.671549 -16.7858
ltibia 58.9647
lfoot 25.1807 -17.8748
ltoes -0.441348
196
root -0.256505 18.1195 12.6434 -4.49513 1.57011 -4.24323
lowerback 10.0987 -1.6352 1.59151
upperback -0.464548 -1.79862 3.03837
thorax -6.11164 -0.884297 2.56593
lowerneck -18.1733 -3.09475 -1.57564
upperneck 20.9926 -4.1774 1.25382
head 9.7156 -1.92183 0.129217
rclavicle -1.53437e-015 5.56597e-015
rhumerus -36.9629 -34.686 -67.9479
rradius 16.9872
rwrist 15.1513
rhand -17.9406 21.3912
rfingers 7.12502
rthumb 8.3277 -8.42461
lclavicle -1.53437e-015 5.56597e-015
lhumerus -27.9972 2.14418 83.6564
lradius 30.1069
lwrist 8.66537
lhand -27.2813 27.6549
lfingers 7.12502
lthumb -0.69173 57.6335
rfemur -15.3414 6.03192 28.9464
rtibia 27.7034
rfoot -6.00931 -3.82272
rtoes 10.5091
lfemur -2.53443 -0.0856522 -16.0219
ltibia 61.0602
lfoot 23.6965 -17.1663
ltoes 1.07386
